<svg xmlns="http://www.w3.org/2000/svg" viewBox="0 0 512 512">
  <rect width="512" height="512" rx="96" fill="#bfe6fb"/>
  <path d="M256 60c-86 0-148 67-148 151 0 74 50 135 121 148l-27 48h108l-27-48c71-13 121-74 121-148 0-84-62-151-148-151z" fill="#e8433f"/>
  <path d="M178 117c-28 24-44 59-44 95 0 58 36 107 88 127-31-33-47-77-47-124 0-38 12-72 33-101-11-1-21 0-30 3z" fill="#ff9a92" opacity=".78"/>
  <path d="M283 359c12 24 38 35 64 35" fill="none" stroke="#c22f2c" stroke-width="18" stroke-linecap="round"/>
  <path d="M230 407h52l22 45h-96z" fill="#c22f2c"/>
  <path d="M256 407c-8 28-1 54 21 78" fill="none" stroke="#274357" stroke-width="12" stroke-linecap="round"/>
  <circle cx="212" cy="148" r="23" fill="#fff" opacity=".72"/>
</svg>
